<?xml version="1.0" encoding="UTF-8"?>
<svg version="1.1" xmlns="http://www.w3.org/2000/svg" width="512" height="512">
	<path d="M0 0 C0.65677734 0.20898926 1.31355469 0.41797852 1.99023438 0.63330078 C22.02003369 7.07972848 38.7948179 18.6015237 54 33 C54.82242187 33.76957031 55.64484375 34.53914063 56.4921875 35.33203125 C83.97462038 61.82989099 102.19697537 101.96917715 103.16113281 140.28442383 C103.1805943 141.75856429 103.19439469 143.23278818 103.203125 144.70703125 C103.21018463 145.50602844 103.21724426 146.30502563 103.22451782 147.12823486 C103.45227694 180.46197484 103.45227694 180.46197484 100 195 C99.70198486 196.29333252 99.70198486 196.29333252 99.39794922 197.61279297 C92.26014563 227.81612816 79.40112008 254.36140018 58 277 C57.24203125 277.82242187 56.4840625 278.64484375 55.703125 279.4921875 C49.13769985 286.37944722 41.91244793 291.78858851 34 297 C33.03320312 297.639375 32.06640625 298.27875 31.0703125 298.9375 C4.90918867 315.1704411 -30.32781172 320.89256517 -60.375 314.375 C-63.28248437 313.67672865 -66.141845 312.87749177 -69 312 C-69.66 311.80164551 -70.32 311.60329102 -71 311.39892578 C-87.52173026 306.24817803 -102.71106084 297.14845968 -117.41015625 288.18359375 C-168.04276242 257.3100534 -225.458816 250.20948254 -283.08276367 263.46875 C-318.60524906 272.09339177 -350.45483424 288.60144111 -380.90917969 308.50732422 C-381.76672852 309.06564941 -382.62427734 309.62397461 -383.5078125 310.19921875 C-384.25691895 310.69252686 -385.00602539 311.18583496 -385.77783203 311.6940918 C-388.11622752 313.06830378 -390.46080784 314.05611328 -393 315 C-394.73835441 293.79207615 -383.4802947 272.36830389 -371 256 C-370.30261719 255.07960938 -369.60523438 254.15921875 -368.88671875 253.2109375 C-338.42369349 214.56132227 -290.35822857 191.12748821 -242.0402832 185.02490234 C-235.19201111 184.24544673 -228.53624572 183.96153013 -221.640625 184.19921875 C-220.35720215 184.23499023 -219.0737793 184.27076172 -217.75146484 184.30761719 C-215.22397841 184.39230183 -212.69742538 184.5173619 -210.17431641 184.68847656 C-203.47856956 184.91457865 -199.61352493 184.41020308 -194.47265625 179.91796875 C-192.93581733 178.32164638 -191.44009908 176.68411211 -190 175 C-189.45214844 174.35957764 -188.90429688 173.71915527 -188.33984375 173.05932617 C-186.99778337 171.37542464 -185.76932384 169.65757511 -184.5625 167.875 C-184.15580078 167.30652344 -183.74910156 166.73804688 -183.33007812 166.15234375 C-178.13229647 158.69796421 -175.37680197 151.1921709 -176 142 C-177.39064571 135.8128051 -179.74169398 132.50553735 -185 129 C-189.83035637 126.68982956 -193.91241885 126.62360029 -199 128 C-204.39139034 130.6428384 -207.7990652 134.45022905 -210 140 C-210.67557944 145.04381466 -210.31259509 150.07776841 -209 155 C-215.57706319 154.72012497 -220.05330977 152.31711148 -225 148 C-232.4603728 139.11104517 -233.94299227 130.39946354 -233 119 C-230.93165759 108.06379431 -225.87409688 98.23894856 -216.98046875 91.30859375 C-206.48331054 84.37260164 -194.0719762 81.84686054 -181.625 83.625 C-171.85755477 85.72652069 -164.48431973 89.38342748 -157 96 C-156.3090625 96.6084375 -155.618125 97.216875 -154.90625 97.84375 C-146.61368926 105.62599931 -141.06714595 115.45223687 -137 126 C-136.51853516 127.24523437 -136.51853516 127.24523437 -136.02734375 128.515625 C-128.26925734 153.19716502 -136.99399602 177.08238976 -148 199 C-84.3324456 220.05510231 -84.3324456 220.05510231 -20.125 207.58984375 C-17.64367086 206.17140103 -15.32209883 204.66505505 -13 203 C-11.85337891 202.18015625 -11.85337891 202.18015625 -10.68359375 201.34375 C-6.72976496 198.23161285 -4.05760236 195.65778699 -3.2421875 190.45703125 C-3.16226562 189.64621094 -3.08234375 188.83539063 -3 188 C-2.78730469 186.42798828 -2.78730469 186.42798828 -2.5703125 184.82421875 C-1.17200933 171.54033867 -1.92730581 155.19760807 -10 144 C-13.33094618 139.93563448 -16.70999832 136.16121988 -22 135 C-28.3344291 134.3769414 -32.72420861 135.36192656 -38 139 C-42.92487967 144.30371657 -43.36712377 147.87294005 -43.265625 154.9609375 C-42.77967922 160.5207289 -40.89054352 163.35350254 -36.73046875 166.9765625 C-34.52750628 168.71811709 -32.29697705 170.38524477 -30 172 C-34.24934176 176.90943369 -40.74367651 177.74929739 -46.9375 178.4375 C-56.13444779 177.95637195 -63.27948938 173.77997854 -69.7734375 167.4921875 C-78.28178864 157.968805 -82.56822617 146.16664115 -81.85546875 133.4140625 C-80.28096909 121.61396614 -73.99239231 109.6911993 -64.75390625 102.171875 C-50.3138378 91.44882885 -34.25740609 90.08789614 -16.73242188 92.28417969 C-5.94394688 94.31450319 5.67077673 99.92714001 14 107 C10.66524381 93.21634109 3.86363587 81.90418514 -5 71 C-5.55171875 70.28328125 -6.1034375 69.5665625 -6.671875 68.828125 C-17.05846555 55.97343372 -33.18114574 46.16395767 -49 42 C-49.85078125 41.77441406 -50.7015625 41.54882812 -51.578125 41.31640625 C-70.52300323 37.30031364 -90.29628891 40.24295233 -109 44 C-109.96196289 44.19110352 -110.92392578 44.38220703 -111.91503906 44.57910156 C-114.27734469 45.04957128 -116.63897075 45.52317349 -119 46 C-111.76724193 26.04756394 -91.29455313 12.05970236 -73 3.27734375 C-50.61336221 -6.25446687 -23.11752378 -7.69784765 0 0 Z " fill="#8FD2FF" transform="translate(401,132)"/>
	<path d="M0 0 C0.65677734 0.20898926 1.31355469 0.41797852 1.99023438 0.63330078 C22.02003369 7.07972848 38.7948179 18.6015237 54 33 C54.82242187 33.76957031 55.64484375 34.53914063 56.4921875 35.33203125 C65.84391939 44.34873225 75.11774944 55.34167669 81 67 C80.67 67.66 80.34 68.32 80 69 C79.28457031 68.18917969 78.56914062 67.37835938 77.83203125 66.54296875 C58.31667238 44.72622347 33.93350977 28.44660201 5.92089844 19.60839844 C4.10933522 19.03462931 2.30812239 18.42847087 0.5078125 17.8203125 C-22.79975712 10.16290953 -46.62193422 10.93282265 -69 21 C-67.07414063 21.20302734 -67.07414063 21.20302734 -65.109375 21.41015625 C-34.256975 25.01735083 -8.64284277 38.52700028 11.32617188 62.59863281 C21.87770932 76.12992444 35.06078101 98.35456259 33 116 C31.07936852 121.35755096 28.08325568 124.45837216 23 127 C17.67516867 128.02810951 13.51873791 127.85201923 8.734375 125.16796875 C6.4822622 123.61184806 4.29925887 121.96763626 2.11328125 120.3203125 C-9.81114605 111.43309817 -25.21562584 107.26171601 -40 109 C-48.46066158 110.98315091 -55.12274964 115.53042518 -59.828125 122.83984375 C-64.80537854 132.06171771 -64.83523892 138.07666376 -62 148 C-61.72027344 147.16597656 -61.44054687 146.33195313 -61.15234375 145.47265625 C-56.34987964 131.99178434 -50.4767085 125.11530566 -37.671875 118.86328125 C-29.44443136 116.20499902 -18.46459019 117.1179313 -10.59375 120.484375 C0.76686852 127.12280871 9.08705731 138.20183379 12.51904297 150.92407227 C16.05568493 167.31666868 18.47303359 189.05393282 10.6953125 204.609375 C1.13981101 218.08395314 -14.72752116 225.27451537 -30 230 C-30.99257813 230.30808594 -31.98515625 230.61617187 -33.0078125 230.93359375 C-55.63649097 237.52049319 -83.33028768 235.42138704 -106 230 C-106.83273437 229.80696289 -107.66546875 229.61392578 -108.5234375 229.41503906 C-121.49064416 226.33987206 -134.11398188 222.07538781 -146.75 217.875 C-147.53144379 217.61533447 -148.31288757 217.35566895 -149.11801147 217.08813477 C-157.50931854 214.29003908 -165.84720443 211.44693549 -174 208 C-172.75778816 204.67451049 -171.35907634 201.79858694 -169.390625 198.84765625 C-168.88587646 198.07824707 -168.38112793 197.30883789 -167.86108398 196.51611328 C-167.32942627 195.7064209 -166.79776855 194.89672852 -166.25 194.0625 C-155.16900165 176.80193611 -147.41787149 157.4249302 -151.69140625 136.63671875 C-155.75460041 123.5290924 -162.95417944 111.15189686 -174.9453125 103.97265625 C-183.32263214 100.00696691 -192.57329839 99.45843339 -201.375 102.5 C-206.39515791 104.7886014 -210.09452934 108.31468804 -213 113 C-213 113.99 -213 114.98 -213 116 C-211.948125 115.38125 -210.89625 114.7625 -209.8125 114.125 C-201.70511911 109.35595242 -193.6661315 108.80711331 -184.40234375 110.46484375 C-174.68929721 113.35991406 -167.2922032 119.43781759 -162 128 C-156.72024009 137.86432011 -157.96461545 150.75396804 -160.96484375 161.1640625 C-166.04910867 175.0930298 -176.17662617 186.16585926 -187 196 C-187.73754517 196.8194812 -187.73754517 196.8194812 -188.48999023 197.65551758 C-193.59130431 202.56765341 -198.90463254 202.55227407 -205.63095093 202.4420166 C-207.26397427 202.39572715 -208.89678592 202.34137512 -210.52929688 202.27960205 C-214.81135615 202.12391519 -219.0944823 202.08133109 -223.37890625 202.03515625 C-224.21994904 202.02458191 -225.06099182 202.01400757 -225.92752075 202.00311279 C-263.92829321 201.6635153 -303.62859454 216.75579419 -332 242 C-332.84820312 242.72832031 -333.69640625 243.45664062 -334.5703125 244.20703125 C-352.22939305 259.62497467 -364.68447543 278.73536002 -372 301 C-371.34 301.33 -370.68 301.66 -370 302 C-373.26794498 303.98396605 -376.53983125 305.96133745 -379.8125 307.9375 C-380.74126953 308.50146484 -381.67003906 309.06542969 -382.62695312 309.64648438 C-383.51962891 310.18466797 -384.41230469 310.72285156 -385.33203125 311.27734375 C-386.56530151 312.02359009 -386.56530151 312.02359009 -387.82348633 312.78491211 C-390 314 -390 314 -393 315 C-394.73835441 293.79207615 -383.4802947 272.36830389 -371 256 C-370.30261719 255.07960938 -369.60523438 254.15921875 -368.88671875 253.2109375 C-338.42369349 214.56132227 -290.35822857 191.12748821 -242.0402832 185.02490234 C-235.19201111 184.24544673 -228.53624572 183.96153013 -221.640625 184.19921875 C-220.35720215 184.23499023 -219.0737793 184.27076172 -217.75146484 184.30761719 C-215.22397841 184.39230183 -212.69742538 184.5173619 -210.17431641 184.68847656 C-203.47856956 184.91457865 -199.61352493 184.41020308 -194.47265625 179.91796875 C-192.93581733 178.32164638 -191.44009908 176.68411211 -190 175 C-189.45214844 174.35957764 -188.90429688 173.71915527 -188.33984375 173.05932617 C-186.99778337 171.37542464 -185.76932384 169.65757511 -184.5625 167.875 C-184.15580078 167.30652344 -183.74910156 166.73804688 -183.33007812 166.15234375 C-178.13229647 158.69796421 -175.37680197 151.1921709 -176 142 C-177.39064571 135.8128051 -179.74169398 132.50553735 -185 129 C-189.83035637 126.68982956 -193.91241885 126.62360029 -199 128 C-204.39139034 130.6428384 -207.7990652 134.45022905 -210 140 C-210.67557944 145.04381466 -210.31259509 150.07776841 -209 155 C-215.57706319 154.72012497 -220.05330977 152.31711148 -225 148 C-232.4603728 139.11104517 -233.94299227 130.39946354 -233 119 C-230.93165759 108.06379431 -225.87409688 98.23894856 -216.98046875 91.30859375 C-206.48331054 84.37260164 -194.0719762 81.84686054 -181.625 83.625 C-171.85755477 85.72652069 -164.48431973 89.38342748 -157 96 C-156.3090625 96.6084375 -155.618125 97.216875 -154.90625 97.84375 C-146.61368926 105.62599931 -141.06714595 115.45223687 -137 126 C-136.51853516 127.24523437 -136.51853516 127.24523437 -136.02734375 128.515625 C-128.26925734 153.19716502 -136.99399602 177.08238976 -148 199 C-84.3324456 220.05510231 -84.3324456 220.05510231 -20.125 207.58984375 C-17.64367086 206.17140103 -15.32209883 204.66505505 -13 203 C-11.85337891 202.18015625 -11.85337891 202.18015625 -10.68359375 201.34375 C-6.72976496 198.23161285 -4.05760236 195.65778699 -3.2421875 190.45703125 C-3.16226562 189.64621094 -3.08234375 188.83539063 -3 188 C-2.78730469 186.42798828 -2.78730469 186.42798828 -2.5703125 184.82421875 C-1.17200933 171.54033867 -1.92730581 155.19760807 -10 144 C-13.33094618 139.93563448 -16.70999832 136.16121988 -22 135 C-28.3344291 134.3769414 -32.72420861 135.36192656 -38 139 C-42.92487967 144.30371657 -43.36712377 147.87294005 -43.265625 154.9609375 C-42.77967922 160.5207289 -40.89054352 163.35350254 -36.73046875 166.9765625 C-34.52750628 168.71811709 -32.29697705 170.38524477 -30 172 C-34.24934176 176.90943369 -40.74367651 177.74929739 -46.9375 178.4375 C-56.13444779 177.95637195 -63.27948938 173.77997854 -69.7734375 167.4921875 C-78.28178864 157.968805 -82.56822617 146.16664115 -81.85546875 133.4140625 C-80.28096909 121.61396614 -73.99239231 109.6911993 -64.75390625 102.171875 C-50.3138378 91.44882885 -34.25740609 90.08789614 -16.73242188 92.28417969 C-5.94394688 94.31450319 5.67077673 99.92714001 14 107 C10.66524381 93.21634109 3.86363587 81.90418514 -5 71 C-5.55171875 70.28328125 -6.1034375 69.5665625 -6.671875 68.828125 C-17.05846555 55.97343372 -33.18114574 46.16395767 -49 42 C-49.85078125 41.77441406 -50.7015625 41.54882812 -51.578125 41.31640625 C-70.52300323 37.30031364 -90.29628891 40.24295233 -109 44 C-109.96196289 44.19110352 -110.92392578 44.38220703 -111.91503906 44.57910156 C-114.27734469 45.04957128 -116.63897075 45.52317349 -119 46 C-111.76724193 26.04756394 -91.29455313 12.05970236 -73 3.27734375 C-50.61336221 -6.25446687 -23.11752378 -7.69784765 0 0 Z " fill="#A9E1FF" transform="translate(401,132)"/>
	<path d="M0 0 C5.82485779 3.51996782 10.54466582 8.98962934 12.5625 15.5 C13.36764105 23.33608208 13.68710392 31.11922577 8.5625 37.5 C3.75801361 42.54521222 -0.59927055 46.10562995 -7.70703125 46.8359375 C-16.22326573 46.92983204 -22.11345494 46.6177288 -28.40234375 40.62890625 C-34.7841668 33.72505269 -35.91792252 28.29832071 -35.7421875 18.9453125 C-35.04689797 11.08319245 -31.38995981 6.95041296 -25.53515625 1.9453125 C-18.47077988 -2.92213491 -7.84396301 -3.47595223 0 0 Z " fill="#A9E1FF" transform="translate(123.4375,257.5)"/>
	<path d="M0 0 C5.82485779 3.51996782 10.54466582 8.98962934 12.5625 15.5 C13.36764105 23.33608208 13.68710392 31.11922577 8.5625 37.5 C3.75801361 42.54521222 -0.59927055 46.10562995 -7.70703125 46.8359375 C-16.22326573 46.92983204 -22.11345494 46.6177288 -28.40234375 40.62890625 C-34.7841668 33.72505269 -35.91792252 28.29832071 -35.7421875 18.9453125 C-35.04689797 11.08319245 -31.38995981 6.95041296 -25.53515625 1.9453125 C-18.47077988 -2.92213491 -7.84396301 -3.47595223 0 0 Z " fill="#8FD2FF" transform="translate(491.4375,65.5)"/>
	<path d="M0 0 C4.8846525 2.26787438 7.73212562 5.1153475 10 10 C10.75381535 15.5997712 10.77303575 20.33499991 8.375 25.5 C3.80134327 30.3143755 0.6912538 32.25156236 -6 32.5 C-12.6912538 32.25156236 -15.80134327 30.3143755 -20.375 25.5 C-22.77303575 20.33499991 -22.75381535 15.5997712 -22 10 C-17.52212837 0.3553534 -9.85292056 -1.32635469 0 0 Z " fill="#AAE1FF" transform="translate(302,200)"/>
</svg>
